<?xml version="1.0" encoding="UTF-8"?>
<svg version="1.1" xmlns="http://www.w3.org/2000/svg" width="2000" height="2000">
<path d="M0 0 C0.67651737 0.00026688 1.35303474 0.00053375 2.05005264 0.00080872 C25.4350588 0.01234609 48.73760396 0.41489983 72.0625 2.1875 C72.89839661 2.25066406 73.73429321 2.31382813 74.59552002 2.37890625 C156.48506386 8.65281821 237.05373735 24.4924286 315.0625 50.1875 C315.77796997 50.42190796 316.49343994 50.65631592 317.23059082 50.89782715 C340.21559642 58.4291062 362.73544331 66.88815896 385.0625 76.1875 C385.71607483 76.45906921 386.36964966 76.73063843 387.04302979 77.01043701 C407.12480637 85.36565646 426.71066474 94.63264161 446.20385742 104.27087402 C449.02220413 105.66079688 451.84750641 107.03642706 454.671875 108.4140625 C467.48256838 114.69733935 479.94471792 121.47291418 492.30273438 128.60253906 C494.96915659 130.13389195 497.6460641 131.64467527 500.328125 133.1484375 C553.0070937 162.75987665 602.52844173 198.55927265 648.43847656 237.80175781 C650.12964221 239.24479092 651.82624619 240.68124817 653.5234375 242.1171875 C660.51176904 248.04673948 667.32846702 254.12482975 674.03125 260.375 C676.75690967 262.91481924 679.5279068 265.39980604 682.3125 267.875 C686.24713022 271.3957937 689.98952462 275.0608337 693.6640625 278.8515625 C695.67065203 280.80586305 697.71313149 282.63626094 699.83203125 284.46484375 C704.11008105 288.17952078 708.13159352 292.10835352 712.125 296.125 C712.79337891 296.78951172 713.46175781 297.45402344 714.15039062 298.13867188 C718.10154409 302.09750494 721.84803931 306.17437021 725.50170898 310.40844727 C727.42779956 312.60388321 729.46673834 314.65429839 731.5625 316.6875 C734.91183729 319.99736698 738.06175956 323.39496949 741.125 326.96875 C743.04818756 329.17110994 745.0228053 331.31990641 747.01171875 333.46289062 C751.7487247 338.56977238 756.25636643 343.78916257 760.625 349.21875 C763.49176803 352.71032645 766.46043318 356.10259547 769.4375 359.5 C775.04770685 365.92834512 780.37718082 372.52631211 785.58642578 379.28173828 C787.18121479 381.34077285 788.79062291 383.3877889 790.40234375 385.43359375 C798.01583801 395.11828933 805.36660009 404.95853256 812.50537109 414.99804688 C814.01582862 417.12187614 815.53290237 419.24084619 817.05078125 421.359375 C846.4716103 462.56995387 872.09124807 506.09261957 895.0625 551.1875 C895.61292969 552.26112793 896.16335938 553.33475586 896.73046875 554.44091797 C917.1375122 594.29160822 934.05236395 635.73237203 948.36968994 678.13769531 C949.05870853 680.17628223 949.75242734 682.21322364 950.44677734 684.25 C977.55178472 764.00596682 993.32594097 847.6588969 1000.0625 945.1875 C1000.10486786 945.9948761 1000.14723572 946.8022522 1000.19088745 947.63409424 C1001.0684037 964.81886888 1001.26424733 981.98239506 1001.25 999.1875 C1001.24973312 999.8626276 1001.24946625 1000.5377552 1001.24919128 1001.23334122 C1001.20755548 1085.48789114 991.01257146 1169.58478533 925.0625 1384.1875 C924.7930658 1384.8346698 924.52363159 1385.4818396 924.24603271 1386.14862061 C915.8828677 1406.23508845 906.62073524 1425.8288351 896.97912598 1445.32885742 C895.58920312 1448.14720413 894.21357294 1450.97250641 892.8359375 1453.796875 C886.55266065 1466.60756838 879.77708582 1479.06971792 872.64746094 1491.42773438 C871.11610805 1494.09415659 869.60532473 1496.7710641 868.1015625 1499.453125 C851.83853685 1528.38668976 833.54376552 1556.31612818 814.0625 1583.1875 C813.52206055 1583.93370605 812.98162109 1584.67991211 812.42480469 1585.44873047 C796.91875049 1606.79937432 780.59317614 1627.50550847 763.44824219 1647.56347656 C762.00520908 1649.25464221 760.56875183 1650.95124619 759.1328125 1652.6484375 C753.20326052 1659.63676904 747.12517025 1666.45346702 740.875 1673.15625 C738.33518076 1675.88190967 735.85019396 1678.6529068 733.375 1681.4375 C729.7732175 1685.46263849 726.00085884 1689.27055704 722.15625 1693.0625 C720.32366505 1694.92243696 718.6214142 1696.81929544 716.9375 1698.8125 C709.34536372 1707.64924878 700.85046803 1716.00849878 691.94921875 1723.51953125 C689.54748902 1725.64279956 687.31545437 1727.9072784 685.0625 1730.1875 C681.5720856 1733.71504647 678.01605686 1737.06134474 674.24609375 1740.28515625 C672.05468635 1742.19430724 669.91938272 1744.15741316 667.78930664 1746.13452148 C662.68192308 1750.87252092 657.46164256 1755.38071863 652.03125 1759.75 C648.53967355 1762.61676803 645.14740453 1765.58543318 641.75 1768.5625 C635.32165488 1774.17270685 628.72368789 1779.50218082 621.96826172 1784.71142578 C619.90922715 1786.30621479 617.8622111 1787.91562291 615.81640625 1789.52734375 C606.13171067 1797.14083801 596.29146744 1804.49160009 586.25195312 1811.63037109 C584.12812386 1813.14082862 582.00915381 1814.65790237 579.890625 1816.17578125 C538.68004613 1845.5966103 495.15738043 1871.21624807 450.0625 1894.1875 C448.98887207 1894.73792969 447.91524414 1895.28835938 446.80908203 1895.85546875 C406.95839178 1916.2625122 365.51762797 1933.17736395 323.11230469 1947.49468994 C321.07371777 1948.18370853 319.03677636 1948.87742734 317 1949.57177734 C237.24403318 1976.67678472 153.5911031 1992.45094097 56.0625 1999.1875 C55.2551239 1999.22986786 54.4477478 1999.27223572 53.61590576 1999.31588745 C36.43113112 2000.1934037 19.26760494 2000.38924733 2.0625 2000.375 C1.3873724 2000.37473312 0.7122448 2000.37446625 0.01665878 2000.37419128 C-84.23789114 2000.33255548 -168.33478533 1990.13757146 -382.9375 1924.1875 C-383.5846698 1923.9180658 -384.2318396 1923.64863159 -384.89862061 1923.37103271 C-404.98508845 1915.0078677 -424.5788351 1905.74573524 -444.07885742 1896.10412598 C-446.89720413 1894.71420312 -449.72250641 1893.33857294 -452.546875 1891.9609375 C-465.35756838 1885.67766065 -477.81971792 1878.90208582 -490.17773438 1871.77246094 C-492.84415659 1870.24110805 -495.5210641 1868.73032473 -498.203125 1867.2265625 C-550.8820937 1837.61512335 -600.40344173 1801.81572735 -646.31347656 1762.57324219 C-648.00464221 1761.13020908 -649.70124619 1759.69375183 -651.3984375 1758.2578125 C-658.38535875 1752.32945714 -665.20067319 1746.25255253 -671.90234375 1740.00390625 C-674.65084008 1737.44286657 -677.44376629 1734.93526222 -680.25 1732.4375 C-683.88830912 1729.18124272 -687.36848992 1725.81896207 -690.7578125 1722.3046875 C-692.67987439 1720.43773849 -694.64813943 1718.69123465 -696.67578125 1716.94140625 C-700.96306799 1713.21505439 -704.99627158 1709.27702849 -709 1705.25 C-710.00256836 1704.25323242 -710.00256836 1704.25323242 -711.02539062 1703.23632812 C-714.96640707 1699.28765178 -718.70122975 1695.22093968 -722.34545898 1690.99780273 C-724.43912285 1688.6171069 -726.666606 1686.39863363 -728.9375 1684.1875 C-732.46504647 1680.6970856 -735.81134474 1677.14105686 -739.03515625 1673.37109375 C-740.94430724 1671.17968635 -742.90741316 1669.04438272 -744.88452148 1666.91430664 C-749.62252092 1661.80692308 -754.13071863 1656.58664256 -758.5 1651.15625 C-761.36676803 1647.66467355 -764.33543318 1644.27240453 -767.3125 1640.875 C-772.92270685 1634.44665488 -778.25218082 1627.84868789 -783.46142578 1621.09326172 C-785.05621479 1619.03422715 -786.66562291 1616.9872111 -788.27734375 1614.94140625 C-795.89083801 1605.25671067 -803.24160009 1595.41646744 -810.38037109 1585.37695312 C-811.89082862 1583.25312386 -813.40790237 1581.13415381 -814.92578125 1579.015625 C-844.3466103 1537.80504613 -869.96624807 1494.28238043 -892.9375 1449.1875 C-893.76314453 1447.57705811 -893.76314453 1447.57705811 -894.60546875 1445.93408203 C-915.0125122 1406.08339178 -931.92736395 1364.64262797 -946.24468994 1322.23730469 C-946.93370853 1320.19871777 -947.62742734 1318.16177636 -948.32177734 1316.125 C-975.06414088 1237.43610576 -990.96424948 1154.78616502 -997.9375 1054.1875 C-997.97986786 1053.40615692 -998.02223572 1052.62481384 -998.06588745 1051.8197937 C-998.96509594 1034.9631902 -999.13893142 1018.12829924 -999.125 1001.25 C-999.12473312 1000.57348263 -999.12446625 999.89696526 -999.12419128 999.19994736 C-999.08261263 914.92451293 -988.89295597 830.8109397 -922.9375 616.1875 C-922.6680658 615.5403302 -922.39863159 614.8931604 -922.12103271 614.22637939 C-913.7578677 594.13991155 -904.49573524 574.5461649 -894.85412598 555.04614258 C-893.46420312 552.22779587 -892.08857294 549.40249359 -890.7109375 546.578125 C-884.42766065 533.76743162 -877.65208582 521.30528208 -870.52246094 508.94726562 C-868.99110805 506.28084341 -867.48032473 503.6039359 -865.9765625 500.921875 C-836.36512335 448.2429063 -800.56572735 398.72155827 -761.32324219 352.81152344 C-759.88020908 351.12035779 -758.44375183 349.42375381 -757.0078125 347.7265625 C-751.07826052 340.73823096 -745.00017025 333.92153298 -738.75 327.21875 C-736.21018076 324.49309033 -733.72519396 321.7220932 -731.25 318.9375 C-727.6482175 314.91236151 -723.87585884 311.10444296 -720.03125 307.3125 C-718.19866505 305.45256304 -716.4964142 303.55570456 -714.8125 301.5625 C-707.22036372 292.72575122 -698.72546803 284.36650122 -689.82421875 276.85546875 C-687.42248902 274.73220044 -685.19045437 272.4677216 -682.9375 270.1875 C-679.4470856 266.65995353 -675.89105686 263.31365526 -672.12109375 260.08984375 C-669.92968635 258.18069276 -667.79438272 256.21758684 -665.66430664 254.24047852 C-660.55692308 249.50247908 -655.33664256 244.99428137 -649.90625 240.625 C-646.41467355 237.75823197 -643.02240453 234.78956682 -639.625 231.8125 C-633.19665488 226.20229315 -626.59868789 220.87281918 -619.84326172 215.66357422 C-617.78422715 214.06878521 -615.7372111 212.45937709 -613.69140625 210.84765625 C-604.00671067 203.23416199 -594.16646744 195.88339991 -584.12695312 188.74462891 C-582.00312386 187.23417138 -579.88415381 185.71709763 -577.765625 184.19921875 C-536.55504613 154.7783897 -493.03238043 129.15875193 -447.9375 106.1875 C-446.32705811 105.36185547 -446.32705811 105.36185547 -444.68408203 104.51953125 C-404.83339178 84.1124878 -363.39262797 67.19763605 -320.98730469 52.88031006 C-318.94871777 52.19129147 -316.91177636 51.49757266 -314.875 50.80322266 C-236.18610576 24.06085912 -153.53616502 8.16075052 -52.9375 1.1875 C-51.76548538 1.12394821 -51.76548538 1.12394821 -50.5697937 1.05911255 C-33.7131902 0.15990406 -16.87829924 -0.01393142 0 0 Z M-78.9375 163.1875 C-79.79297424 163.27235657 -80.64844849 163.35721313 -81.52984619 163.44464111 C-120.80265782 167.36019471 -159.56356011 173.98552248 -197.9375 183.1875 C-198.60400574 183.3464978 -199.27051147 183.50549561 -199.95721436 183.66931152 C-221.60756088 188.84525049 -242.80056543 195.24203316 -263.9375 202.1875 C-264.58781189 202.40061829 -265.23812378 202.61373657 -265.90814209 202.83331299 C-302.72394515 214.91736967 -338.14956329 230.15975034 -372.9375 247.1875 C-373.88222168 247.64624512 -374.82694336 248.10499023 -375.80029297 248.57763672 C-390.1726908 255.56383465 -404.11739646 263.16743306 -417.9375 271.1875 C-418.86062988 271.72133301 -419.78375977 272.25516602 -420.73486328 272.80517578 C-451.07706254 290.39198745 -480.09169806 309.86894145 -507.9375 331.1875 C-508.95046143 331.96262939 -508.95046143 331.96262939 -509.98388672 332.75341797 C-518.82553956 339.53608227 -527.54329288 346.4173842 -535.99609375 353.6796875 C-538.7720394 356.04643001 -541.59313193 358.34132031 -544.4375 360.625 C-549.81253413 364.99564819 -554.86573702 369.66868387 -559.92578125 374.39453125 C-562.34403176 376.6498045 -564.80604061 378.84260265 -567.3125 381 C-570.38260591 383.65262289 -573.23439759 386.4605258 -576.07397461 389.35644531 C-577.82408998 391.07606607 -579.62619547 392.66664102 -581.49609375 394.25390625 C-586.73221246 398.80825749 -591.60538852 403.70942659 -596.5 408.625 C-597.40685547 409.52798828 -598.31371094 410.43097656 -599.24804688 411.36132812 C-603.81106608 415.93096519 -608.25146596 420.54281993 -612.43139648 425.46704102 C-614.02758371 427.29040484 -615.70768457 428.9910865 -617.4375 430.6875 C-621.1493719 434.35020803 -624.54761518 438.22729429 -627.9375 442.1875 C-628.84489364 443.24232382 -629.75245908 444.29699986 -630.66015625 445.3515625 C-633.24597979 448.35873864 -635.82442027 451.37214804 -638.39990234 454.38818359 C-639.39129386 455.5483226 -640.38372904 456.70757095 -641.37744141 457.86572266 C-648.46709197 466.12910702 -655.28037316 474.57239468 -661.9375 483.1875 C-662.44539062 483.84234375 -662.95328125 484.4971875 -663.4765625 485.171875 C-689.22947986 518.40963041 -712.48141423 553.44573046 -732.9375 590.1875 C-733.44216797 591.09242188 -733.94683594 591.99734375 -734.46679688 592.9296875 C-770.81592557 658.38562164 -798.47395718 728.34152965 -815.9375 801.1875 C-816.13194702 801.99793762 -816.32639404 802.80837524 -816.5267334 803.64337158 C-824.81230747 838.35636455 -830.83011232 873.34157308 -834.75 908.8125 C-834.84945923 909.69932465 -834.94891846 910.58614929 -835.0513916 911.49984741 C-838.20364704 940.01406527 -839.32614208 968.53080743 -839.25555801 997.20009613 C-839.24988427 999.54788787 -839.24708461 1001.89567227 -839.24447632 1004.24346924 C-839.20352925 1029.6553458 -838.49755579 1054.88866955 -835.9375 1080.1875 C-835.85264343 1081.04297424 -835.76778687 1081.89844849 -835.68035889 1082.77984619 C-831.62443422 1123.4605728 -824.54205197 1163.46174437 -814.9375 1203.1875 C-814.68060394 1204.26016113 -814.68060394 1204.26016113 -814.41851807 1205.35449219 C-796.5160968 1280.05492963 -766.7797436 1352.92290055 -727.9375 1419.1875 C-726.87085657 1421.02720626 -725.80445286 1422.86705152 -724.73828125 1424.70703125 C-707.61094576 1454.11473354 -688.52841222 1482.10597414 -667.9375 1509.1875 C-667.1846875 1510.18523437 -666.431875 1511.18296875 -665.65625 1512.2109375 C-652.69473848 1529.2544835 -638.89496807 1545.74326764 -624.38671875 1561.4921875 C-622.42872566 1563.64691674 -620.50748221 1565.82256362 -618.59765625 1568.01953125 C-609.14596368 1578.84756074 -599.08109832 1589.13601968 -588.9375 1599.3125 C-588.16116211 1600.09343018 -587.38482422 1600.87436035 -586.58496094 1601.67895508 C-582.42474884 1605.82799342 -578.18516866 1609.81481147 -573.71289062 1613.62646484 C-571.87363753 1615.2436519 -570.15190774 1616.93920967 -568.4375 1618.6875 C-564.77479197 1622.3993719 -560.89770571 1625.79761518 -556.9375 1629.1875 C-555.88267618 1630.09489364 -554.82800014 1631.00245908 -553.7734375 1631.91015625 C-550.76626136 1634.49597979 -547.75285196 1637.07442027 -544.73681641 1639.64990234 C-543.5766774 1640.64129386 -542.41742905 1641.63372904 -541.25927734 1642.62744141 C-533.61704795 1649.18416605 -525.82749469 1655.50794215 -517.87109375 1661.67919922 C-515.81091845 1663.28624 -513.76431356 1664.90956434 -511.71875 1666.53515625 C-502.46267348 1673.85930775 -492.98966899 1680.70568634 -483.19921875 1687.296875 C-479.84267985 1689.55846103 -476.55974663 1691.89548738 -473.3125 1694.3125 C-466.08647844 1699.62118762 -458.51253499 1704.3970862 -450.9375 1709.1875 C-450.11926758 1709.70505859 -449.30103516 1710.22261719 -448.45800781 1710.75585938 C-435.48671204 1718.93200819 -422.32184652 1726.70830525 -408.9375 1734.1875 C-408.09735352 1734.65978027 -407.25720703 1735.13206055 -406.39160156 1735.61865234 C-341.05419111 1772.25633521 -270.75983385 1799.66069517 -197.9375 1817.1875 C-197.19856506 1817.36627686 -196.45963013 1817.54505371 -195.69830322 1817.72924805 C-158.09098563 1826.80364799 -119.98197928 1833.06223707 -81.49475098 1836.93035889 C-79.82742722 1837.0980145 -78.16033822 1837.26802655 -76.49353027 1837.44073486 C-24.70292835 1842.79205171 29.2877394 1842.5522041 81.0625 1837.1875 C82.78677954 1837.01411727 84.51106349 1836.84077838 86.23535156 1836.66748047 C124.63367496 1832.74884072 162.53546527 1826.18639172 200.0625 1817.1875 C200.72900574 1817.0285022 201.39551147 1816.86950439 202.08221436 1816.70568848 C223.73420067 1811.52935748 244.92099487 1805.12252469 266.0625 1798.1875 C266.70102905 1797.97909485 267.33955811 1797.7706897 267.99743652 1797.55596924 C321.39662248 1780.1207461 373.68157585 1756.75626282 422.0625 1728.1875 C423.31957764 1727.45055908 423.31957764 1727.45055908 424.60205078 1726.69873047 C443.53981304 1715.5775982 462.1106351 1703.84201384 480.0625 1691.1875 C480.64902344 1690.77580566 481.23554687 1690.36411133 481.83984375 1689.93994141 C491.3966828 1683.22195182 500.75652865 1676.24777602 510.0625 1669.1875 C510.95098633 1668.51388428 510.95098633 1668.51388428 511.85742188 1667.82666016 C523.32474605 1659.11552882 534.40570526 1649.9649893 545.36669922 1640.62890625 C547.06484846 1639.18550384 548.76840193 1637.74868577 550.47265625 1636.3125 C558.64618129 1629.3983084 566.50119994 1622.1935936 574.28808594 1614.84863281 C575.91094228 1613.32938205 577.54754749 1611.82807442 579.1953125 1610.3359375 C586.12711516 1604.05264029 592.81191804 1597.5431817 599.4375 1590.9375 C600.28207764 1590.09751465 601.12665527 1589.2575293 601.99682617 1588.39208984 C606.34077939 1584.0373768 610.54180544 1579.6223492 614.52783203 1574.93652344 C616.13496476 1573.10491369 617.82307701 1571.39327648 619.5625 1569.6875 C623.27450487 1566.02455246 626.66376869 1562.14023697 630.0625 1558.1875 C631.04368075 1557.05808085 632.02550712 1555.9292224 633.0078125 1554.80078125 C635.82424514 1551.56396023 638.63227445 1548.32000087 641.43554688 1545.07177734 C642.46157679 1543.88346718 643.48876286 1542.69615338 644.51757812 1541.51025391 C651.83750366 1533.06318479 658.66512752 1524.29465276 665.40087891 1515.37695312 C667.04081983 1513.21606712 668.69518966 1511.0671628 670.35546875 1508.921875 C694.44191192 1477.77232769 715.85794578 1444.54274128 735.0625 1410.1875 C735.52946289 1409.35798828 735.99642578 1408.52847656 736.47753906 1407.67382812 C760.93957884 1364.1215377 780.93769079 1318.44794041 797.0625 1271.1875 C797.28121765 1270.54808472 797.4999353 1269.90866943 797.72528076 1269.24987793 C817.18606575 1212.25971084 837.0625 1145.8816196 837.0625 1085.1875 C859.1725 1085.1875 881.2825 1085.1875 904.0625 1085.1875 C902.48723611 1081.24934026 900.93522446 1078.13127171 898.74609375 1074.55859375 C898.07320312 1073.45580078 897.4003125 1072.35300781 896.70703125 1071.21679688 C895.97138442 1070.01951266 895.23570647 1068.82224757 894.5 1067.625 C893.73397143 1066.37199143 892.96835357 1065.11873168 892.203125 1063.86523438 C890.61340594 1061.26188199 889.02192677 1058.65961826 887.42919922 1056.05810547 C884.14149064 1050.68509149 880.87532676 1045.29903434 877.60906982 1039.91296387 C875.84850512 1037.01034743 874.0862583 1034.10875252 872.32421875 1031.20703125 C869.81515737 1027.07460816 867.30642657 1022.94198456 864.79800415 1018.80917358 C857.32963755 1006.50451263 849.85707724 994.20244496 842.37036133 981.90893555 C837.76122258 974.33907671 833.1609346 966.76386322 828.5625 959.1875 C822.76968413 949.64350142 816.97309597 940.1018204 811.16455078 930.56738281 C808.27251725 925.82016086 805.38441969 921.07062884 802.50390625 916.31640625 C795.15110432 904.19045136 787.68231577 892.1475405 780.0625 880.1875 C777.30163488 882.67751744 775.55779396 885.44327822 773.6484375 888.62109375 C772.97876953 889.73033203 772.30910156 890.83957031 771.61914062 891.98242188 C770.89189267 893.19659397 770.16468012 894.41078727 769.4375 895.625 C768.67689137 896.88764645 767.91581573 898.15001169 767.15429688 899.41210938 C765.57207885 902.03520809 763.99188077 904.65950758 762.41308594 907.28466797 C759.16191763 912.68719243 755.88643989 918.07490757 752.61090088 923.462677 C750.84359443 926.37023924 749.07814854 929.2789308 747.3125 932.1875 C746.60417542 933.35417198 745.8958421 934.52083865 745.1875 935.6875 C744.6615625 936.55375 744.6615625 936.55375 744.125 937.4375 C723.9374995 970.68750082 723.9374995 970.68750082 722.87504578 972.43742371 C722.16655879 973.60434404 721.45807287 974.77126502 720.74958801 975.93818665 C718.98111422 978.85097747 717.2126221 981.76375716 715.4440918 984.67651367 C712.22842611 989.97273261 709.01290621 995.26903982 705.79804993 1000.56575012 C695.34622768 1017.78587314 684.88235365 1034.99861068 674.3984375 1052.19921875 C670.94907056 1057.85951849 667.50338627 1063.52204074 664.0625 1069.1875 C663.57249512 1069.99413086 663.08249023 1070.80076172 662.57763672 1071.63183594 C661.27819377 1073.77375485 659.98204996 1075.91762128 658.6875 1078.0625 C658.31197998 1078.68125 657.93645996 1079.3 657.54956055 1079.9375 C655.80559444 1082.39672063 655.80559444 1082.39672063 655.0625 1085.1875 C689.2175 1085.6825 689.2175 1085.6825 724.0625 1086.1875 C712.16951017 1171.17886631 689.46234837 1251.20806829 651.0625 1328.1875 C650.20785156 1329.90283936 650.20785156 1329.90283936 649.3359375 1331.65283203 C633.13072227 1363.9846413 614.18317644 1394.83722517 593.0625 1424.1875 C592.47968262 1424.99848145 591.89686523 1425.80946289 591.29638672 1426.64501953 C583.68636728 1437.1957034 575.78320185 1447.44510077 567.48632812 1457.46386719 C565.47409527 1459.89980065 563.4894225 1462.35792475 561.5 1464.8125 C552.28968923 1476.03233312 542.71327009 1486.82308105 532.75439453 1497.38232422 C530.64039103 1499.63787139 528.55562748 1501.91911361 526.47167969 1504.20239258 C518.02542542 1513.44311038 509.37079248 1522.53652354 499.8203125 1530.6484375 C497.98322976 1532.2569055 496.27342213 1533.94588868 494.5625 1535.6875 C490.89967092 1539.39949457 487.02143845 1542.79596641 483.0625 1546.1875 C482.06476563 1547.05117187 481.06703125 1547.91484375 480.0390625 1548.8046875 C465.77566663 1561.12981549 451.26970999 1573.04281349 436.0625 1584.1875 C435.38171387 1584.69071777 434.70092773 1585.19393555 433.99951172 1585.71240234 C400.27780965 1610.62484953 364.46845843 1632.28999607 327.0625 1651.1875 C325.9290918 1651.76226074 324.79568359 1652.33702148 323.62792969 1652.92919922 C254.99967779 1687.60120742 180.25903112 1710.04328891 -226.88540649 1691.93818665 C-261.29609523 1680.52356421 -294.50528808 1666.36574388 -326.9375 1650.1875 C-328.08105957 1649.61773438 -329.22461914 1649.04796875 -330.40283203 1648.4609375 C-362.7346413 1632.25572227 -393.58722517 1613.30817644 -422.9375 1592.1875 C-423.74848145 1591.60468262 -424.55946289 1591.02186523 -425.39501953 1590.42138672 C-435.9457034 1582.81136728 -446.19510077 1574.90820185 -456.21386719 1566.61132812 C-458.64980065 1564.59909527 -461.10792475 1562.6144225 -463.5625 1560.625 C-474.74508862 1551.44526307 -485.51471236 1541.91083662 -496.03320312 1531.97851562 C-497.94599661 1530.17950883 -499.86939771 1528.39263255 -501.796875 1526.609375 C-521.57745324 1508.29858442 -521.57745324 1508.29858442 -529.90625 1498.5 C-532.19797407 1495.89096029 -534.57103747 1493.37017906 -536.95410156 1490.84472656 C-542.42220722 1485.04905178 -547.70549574 1479.20416216 -552.6796875 1472.97265625 C-554.7926227 1470.36621542 -556.96603491 1467.83227735 -559.17089844 1465.30419922 C-565.88444863 1457.59420774 -572.14582561 1449.59467648 -578.27099609 1441.41162109 C-579.91887317 1439.21235943 -581.57836767 1437.02221542 -583.23828125 1434.83203125 C-608.82643621 1400.82725813 -630.76327998 1364.14119377 -649.9375 1326.1875 C-650.51226074 1325.0540918 -651.08702148 1323.92068359 -651.67919922 1322.75292969 C-686.35238343 1254.12235005 -708.82849918 1179.35188692 -690.68818665 772.23959351 C-679.27356421 737.82890477 -665.11574388 704.61971192 -648.9375 672.1875 C-648.36773438 671.04394043 -647.79796875 669.90038086 -647.2109375 668.72216797 C-628.35185987 631.09550938 -605.82885086 595.42947677 -580.30175781 561.9765625 C-579.01604097 560.29049717 -577.73774173 558.59906849 -576.4609375 556.90625 C-569.5361827 547.79354336 -562.27943015 538.96571348 -554.9375 530.1875 C-554.41897461 529.56697754 -553.90044922 528.94645508 -553.36621094 528.30712891 C-546.06517948 519.60058943 -538.42434494 511.25754226 -530.62939453 502.99267578 C-528.51539103 500.73712861 -526.43062748 498.45588639 -524.34667969 496.17260742 C-515.90042542 486.93188962 -507.24579248 477.83847646 -497.6953125 469.7265625 C-495.85822976 468.1180945 -494.14842213 466.42911132 -492.4375 464.6875 C-488.77467092 460.97550543 -484.89643845 457.57903359 -480.9375 454.1875 C-479.93976563 453.32382812 -478.94203125 452.46015625 -477.9140625 451.5703125 C-463.65066663 439.24518451 -449.14470999 427.33218651 -433.9375 416.1875 C-433.25671387 415.68428223 -432.57592773 415.18106445 -431.87451172 414.66259766 C-398.15280965 389.75015047 -362.34345843 368.08500393 -324.9375 349.1875 C-323.8040918 348.61273926 -322.67068359 348.03797852 -321.50292969 347.44580078 C-252.87212995 312.77250537 -178.10209871 290.2971413 229.01040649 308.43681335 C263.42109523 319.85143579 296.63028808 334.00925612 329.0625 350.1875 C330.20605957 350.75726563 331.34961914 351.32703125 332.52783203 351.9140625 C364.8596413 368.11927773 395.71222517 387.06682356 425.0625 408.1875 C425.87348145 408.77031738 426.68446289 409.35313477 427.52001953 409.95361328 C438.0707034 417.56363272 448.32010077 425.46679815 458.33886719 433.76367188 C460.77480065 435.77590473 463.23292475 437.7605775 465.6875 439.75 C476.87008862 448.92973693 487.63971236 458.46416338 498.15820312 468.39648438 C500.07099661 470.19549117 501.99439771 471.98236745 503.921875 473.765625 C523.70245324 492.07641558 523.70245324 492.07641558 532.03125 501.875 C534.32297407 504.48403971 536.69603747 507.00482094 539.07910156 509.53027344 C544.54720722 515.32594822 549.83049574 521.17083784 554.8046875 527.40234375 C556.9176227 530.00878458 559.09103491 532.54272265 561.29589844 535.07080078 C568.00944863 542.78079226 574.27082561 550.78032352 580.39599609 558.96337891 C582.04387317 561.16264057 583.70336767 563.35278458 585.36328125 565.54296875 C610.95143621 599.54774187 632.88827998 636.23380623 652.0625 674.1875 C652.63726074 675.3209082 653.21202148 676.45431641 653.80419922 677.62207031 C683.24340656 735.8932546 702.09490673 797.60585145 716.0625 861.1875 C719.48944294 857.87458843 722.50002119 854.48676152 725.375 850.6875 C725.79031982 850.14125977 726.20563965 849.59501953 726.63354492 849.03222656 C727.57753185 847.79021839 728.5198944 846.54697452 729.4609375 845.30273438 C731.90556653 842.0740353 734.36299538 838.85511774 736.81860352 835.63476562 C738.88926429 832.91879029 740.95843713 830.20168674 743.02734375 827.484375 C752.00676759 815.6939454 761.01746737 803.92766651 770.0625 792.1875 C773.95820037 796.03251282 777.71810777 799.98462337 781.4375 804 C782.0140332 804.62165039 782.59056641 805.24330078 783.18457031 805.88378906 C786.64668408 809.62740728 790.05839093 813.40551226 793.390625 817.265625 C795.42008073 819.59855074 797.490147 821.89261245 799.5625 824.1875 C802.23298344 827.14619751 804.88548058 830.11676472 807.5 833.125 C811.14036991 837.30593528 814.88143227 841.39265969 818.6171875 845.48828125 C821.81198173 849.01480331 824.94886249 852.58928976 828.0625 856.1875 C829.33530266 852.36909203 828.56711957 849.49123074 827.796875 845.65625 C827.6481041 844.88999802 827.49933319 844.12374603 827.34605408 843.33427429 C826.84549371 840.78310762 826.33063329 838.23515316 825.8125 835.6875 C825.54573959 834.36463486 825.54573959 834.36463486 825.27359009 833.01504517 C818.68931101 800.54093056 810.16546737 768.60265512 799.71813965 737.16229248 C799.07593152 735.22795585 798.43838038 733.29213815 797.80175781 731.35595703 C785.85439484 695.19647187 770.80615591 660.37246414 754.0625 626.1875 C753.57136719 625.17800293 753.08023437 624.16850586 752.57421875 623.12841797 C735.27364405 587.62001548 714.82011506 553.47176128 692.0625 521.1875 C691.4449585 520.30771484 691.4449585 520.30771484 690.81494141 519.41015625 C677.22253171 500.07394412 662.97644773 481.05909799 647.5703125 463.12890625 C645.20356999 460.3529606 642.90867969 457.53186807 640.625 454.6875 C636.25435181 449.31246587 631.58131613 444.25926298 626.85546875 439.19921875 C624.6001955 436.78096824 622.40739735 434.31895939 620.25 431.8125 C617.59737711 428.74239409 614.7894742 425.89060241 611.89355469 423.05102539 C610.17393393 421.30091002 608.58335898 419.49880453 606.99609375 417.62890625 C602.44174251 412.39278754 597.54057341 407.51961148 592.625 402.625 C591.72201172 401.71814453 590.81902344 400.81128906 589.88867188 399.87695312 C585.31903481 395.31393392 580.70718007 390.87353404 575.78295898 386.69360352 C573.95959516 385.09741629 572.2589135 383.41731543 570.5625 381.6875 C566.89979197 377.9756281 563.02270571 374.57738482 559.0625 371.1875 C558.00767618 370.28010636 556.95300014 369.37254092 555.8984375 368.46484375 C552.89126136 365.87902021 549.87785196 363.30057973 546.86181641 360.72509766 C545.7016774 359.73370614 544.54242905 358.74127096 543.38427734 357.74755859 C535.66546576 351.12512952 527.79977049 344.73003085 519.75927734 338.50195312 C518.15592013 337.25987036 516.55635532 336.0128966 514.95703125 334.765625 C511.67398186 332.21907719 508.37478798 329.69582608 505.0625 327.1875 C504.05654785 326.42445557 504.05654785 326.42445557 503.03027344 325.64599609 C489.73711016 315.60260614 475.99460725 306.31738249 462.0625 297.1875 C460.52861173 296.17583295 458.99475451 295.16411883 457.4609375 294.15234375 C446.84809955 287.18528729 436.00531637 280.62149977 425.0625 274.1875 C424.24861816 273.70700195 423.43473633 273.22650391 422.59619141 272.73144531 C407.07367461 263.59909825 391.14208052 255.28475599 375.0625 247.1875 C374.44312561 246.87492249 373.82375122 246.56234497 373.18560791 246.24029541 C340.46248255 229.74552923 306.70303166 216.10077653 272.0625 204.1875 C271.36334473 203.9460022 270.66418945 203.70450439 269.94384766 203.45568848 C212.51473663 183.64687481 152.77671494 171.03129782 92.4375 164.375 C91.5510379 164.27563141 90.66457581 164.17626282 89.75125122 164.07388306 C61.23666364 160.92140135 32.71958486 159.79885695 4.04990387 159.86944199 C1.70211213 159.87511573 -0.64567227 159.87791539 -2.99346924 159.88052368 C-28.4053458 159.92147075 -53.63866955 160.62744421 -78.9375 163.1875 Z M-423.9375 745.1875 C-423.9375 801.2875 -423.9375 857.3875 -423.9375 915.1875 C-386.6475 915.1875 -349.3575 915.1875 -310.9375 915.1875 C-310.9375 896.3775 -310.9375 877.5675 -310.9375 858.1875 C-288.36203216 858.25047056 -265.7867133 858.32573194 -243.21137047 858.42321491 C-232.72816349 858.46809216 -222.24498987 858.50752529 -211.76171875 858.53393555 C-202.61958429 858.55698115 -193.47755613 858.59045202 -184.33550608 858.63620156 C-179.49932404 858.66004556 -174.66324668 858.67883197 -169.82700729 858.68511391 C-165.26496923 858.69120492 -160.70319874 858.711348 -156.14126015 858.74177551 C-154.47655032 858.75049186 -152.81180543 858.75429178 -151.14707375 858.75250816 C-131.97381773 858.73846516 -114.49186266 861.85914984 -100.12109375 875.734375 C-89.08743705 888.12996786 -84.37646133 902.2765664 -84.6953125 918.6796875 C-85.7268073 933.61972509 -92.62370379 948.2986584 -103.9375 958.1875 C-118.00310023 968.58773843 -131.72979368 971.33045246 -148.79516602 971.34571838 C-149.97398094 971.35065636 -151.15279587 971.35559434 -152.36733246 971.36068195 C-155.62151125 971.37334028 -158.8756671 971.38165824 -162.12986302 971.38810861 C-165.64578662 971.39614766 -169.16168888 971.40983325 -172.67759705 971.42282104 C-178.76324797 971.44453429 -184.8489011 971.46269749 -190.93457031 971.47842598 C-199.73334573 971.50117169 -208.53209747 971.5293079 -217.33085275 971.55874526 C-231.60743953 971.60636366 -245.88403603 971.64964336 -260.16064453 971.69018555 C-274.02621211 971.72956979 -287.89177103 971.77101415 -301.75732422 971.81518555 C-302.62120361 971.81793505 -303.485083 971.82068456 -304.37514055 971.82351738 C-311.13159018 971.84503747 -317.88803944 971.86667676 -324.64448857 971.88835371 C-357.74214157 971.99451152 -390.83981723 972.09027556 -423.9375 972.1875 C-423.9375 1065.5775 -423.9375 1158.9675 -423.9375 1255.1875 C-386.6475 1255.1875 -349.3575 1255.1875 -310.9375 1255.1875 C-310.9375 1199.0875 -310.9375 1142.9875 -310.9375 1085.1875 C-283.6196875 1084.07375 -283.6196875 1084.07375 -255.75 1082.9375 C-250.06241455 1082.58913086 -244.3748291 1082.24076172 -238.51489258 1081.88183594 C-202.35887149 1080.72616367 -202.35887149 1080.72616367 -191.78192139 1090.32324219 C-183.3013181 1099.38928186 -177.53434747 1110.33388245 -172.25584126 1121.47738457 C-167.54631294 1131.39893332 -161.50478934 1140.22608316 -155.19068336 1149.18315887 C-152.13770583 1153.54419569 -149.174805 1157.96616229 -146.203125 1162.3828125 C-145.53124146 1163.37774719 -144.85935791 1164.37268188 -144.16711426 1165.39776611 C-137.43103102 1175.40241185 -130.80851838 1185.48150054 -124.1875 1195.5625 C-114.77471644 1209.89299638 -105.29066743 1224.1712633 -95.6875 1238.375 C-95.14258911 1239.18161072 -94.59767822 1239.98822144 -94.03625488 1240.8192749 C-92.5205939 1243.06161711 -91.00303107 1245.3026542 -89.484375 1247.54296875 C-89.03485474 1248.20730423 -88.58533447 1248.87163971 -88.12219238 1249.55610657 C-86.20336618 1252.50996698 -86.20336618 1252.50996698 -83.9375 1255.1875 C-82.4700104 1255.28315123 -80.99793116 1255.30938309 -79.52732849 1255.30775452 C-78.09906738 1255.30981651 -78.09906738 1255.30981651 -76.64195251 1255.31192017 C-75.58891434 1255.30832489 -74.53587616 1255.30472961 -73.45092773 1255.30102539 C-72.34862823 1255.30117142 -71.24632874 1255.30131744 -70.11062622 1255.3014679 C-66.44742908 1255.30076821 -62.78428206 1255.29297324 -59.12109375 1255.28515625 C-56.58903532 1255.28329227 -54.05697652 1255.28186827 -51.5249176 1255.28086853 C-45.52901751 1255.27743346 -39.53313911 1255.26954269 -33.53724772 1255.25951904 C-26.71268942 1255.24835677 -19.88813028 1255.24284717 -13.06356514 1255.23782361 C0.97846664 1255.22736004 15.02048233 1255.2097613 29.0625 1255.1875 C28.28883152 1253.77539492 27.51270852 1252.36463451 26.7355957 1250.954422 C26.30366409 1250.16865689 25.87173248 1249.38289179 25.42671204 1248.57331562 C23.23009109 1244.7317335 20.74848018 1241.09887771 18.25 1237.44921875 C17.69268188 1236.62782913 17.13536377 1235.80643951 16.56115723 1234.9601593 C15.35954639 1233.18931706 14.15641562 1231.41950539 12.9519043 1229.65063477 C9.67719808 1224.83991826 6.41597938 1220.02009191 3.15625 1215.19921875 C2.48275513 1214.20324677 1.80926025 1213.20727478 1.11535645 1212.18112183 C-5.82138957 1201.90616272 -12.6356622 1191.55204484 -19.4375 1181.1875 C-29.67376192 1165.59576815 -40.03482087 1150.09473708 -50.49032593 1134.64926147 C-63.14883896 1115.94393142 -75.5770827 1097.09079687 -87.9375 1078.1875 C-82.12839817 1075.51339657 -76.32214015 1072.91705102 -70.375 1070.5625 C-51.69985537 1062.58815174 -35.53647864 1050.11023168 -20.9375 1036.1875 C-20.09445312 1035.40890625 -19.25140625 1034.6303125 -18.3828125 1033.828125 C9.2631486 1007.50705022 27.57581307 966.58177692 29.22363281 928.4597168 C29.71613047 903.64303155 29.71613047 903.64303155 26.0625 879.1875 C25.85850586 878.35009277 25.65451172 877.51268555 25.44433594 876.64990234 C17.9137966 846.68668652 4.09863826 819.93270588 -17.47021484 797.70605469 C-18.85740238 796.27039638 -20.22053181 794.81160473 -21.58203125 793.3515625 C-48.48686373 765.19628053 -89.64658852 746.37711243 -128.71847069 745.09634006 C-131.92373525 745.06204672 -135.1275833 745.05900667 -138.33302307 745.06724548 C-139.5576115 745.06639106 -140.78219993 745.06553663 -142.04389709 745.06465632 C-145.42125383 745.06329975 -148.79855192 745.06640307 -152.17590153 745.07143438 C-155.82608416 745.07576967 -159.47626511 745.07429027 -163.12644958 745.0735321 C-169.44345589 745.07300882 -175.76045183 745.07613521 -182.07745552 745.08176994 C-191.21068091 745.0899114 -200.34390131 745.09250288 -209.47712993 745.09375793 C-224.29668646 745.0959443 -239.11623748 745.10259311 -253.93579102 745.11206055 C-268.32804334 745.12124542 -282.72029416 745.12830952 -297.11254883 745.13256836 C-298.45775471 745.13297036 -298.45775471 745.13297036 -299.83013648 745.13338047 C-306.84416752 745.13546 -313.8581986 745.13741689 -320.8722297 745.13933504 C-355.22732486 745.14876159 -389.58240621 745.1688816 -423.9375 745.1875 Z M86.0625 745.1875 C86.0625 801.2875 86.0625 857.3875 86.0625 915.1875 C123.3525 915.1875 160.6425 915.1875 199.0625 915.1875 C199.3925 896.7075 199.7225 878.2275 200.0625 859.1875 C222.60333923 859.0970025 245.14403004 859.02340355 267.68500519 858.98025131 C278.15253735 858.95967724 288.61994812 858.93165583 299.08740234 858.88574219 C308.21704142 858.84571593 317.34659254 858.82002978 326.47631693 858.81114602 C331.30483302 858.80595787 336.13309758 858.79387282 340.96153259 858.76457977 C345.51862232 858.7371604 350.0753601 858.7291078 354.63252449 858.73506927 C356.29320764 858.73398077 357.95390421 858.72618636 359.6145153 858.7106781 C378.67038172 858.54164722 395.53617354 862.22106228 409.77734375 875.78515625 C421.29993662 887.89865132 425.54480173 902.61279995 425.2734375 919.05078125 C424.74651324 933.2484628 418.50836424 945.57787888 408.76953125 955.7109375 C394.99631521 968.31154207 378.85929935 971.49840868 360.72381592 971.4659729 C358.95046698 971.4746615 358.95046698 971.4746615 357.14129281 971.48352563 C353.89611948 971.49747947 350.65107295 971.50274743 347.40587449 971.50417423 C343.89273559 971.50789638 340.37964286 971.52306555 336.86653137 971.53678894 C330.79186242 971.55897789 324.71721007 971.57404125 318.64250946 971.58415604 C309.85970195 971.59879047 301.07695236 971.62434041 292.29417899 971.65248732 C278.0420006 971.6978691 263.78981383 971.73451937 249.53759766 971.765625 C235.69936655 971.79584593 221.86115599 971.83023486 208.02294922 971.87011719 C206.72873812 971.87383945 206.72873812 971.87383945 205.40838134 971.87763691 C198.65987088 971.89707858 191.91136112 971.91676066 185.16285157 971.93651867 C152.12942608 972.03317109 119.0959828 972.10886856 86.0625 972.1875 C86.0625 1065.5775 86.0625 1158.9675 86.0625 1255.1875 C143.56444655 1255.27493987 143.56444655 1255.27493987 201.06640625 1255.33398438 C208.82959004 1255.33985744 216.59277364 1255.34591873 224.35595703 1255.35229492 C225.32886236 1255.35308617 226.30176769 1255.35387741 227.30415499 1255.35469264 C242.98355851 1255.36771851 258.66292881 1255.39135774 274.34231268 1255.41895839 C290.44959428 1255.44707448 306.55685857 1255.46368934 322.66416371 1255.46976548 C332.59252251 1255.47386909 342.52078743 1255.48680073 352.44911732 1255.5112494 C359.26969755 1255.52718329 366.09022968 1255.53188316 372.91082714 1255.52800413 C376.83808808 1255.52609442 380.76518571 1255.52889232 384.69241714 1255.54511642 C400.03020888 1255.60535447 415.03728304 1255.64461233 430.0625 1252.1875 C431.06897017 1251.95604877 432.07544033 1251.72459753 433.11240959 1251.48613262 C435.43890835 1250.91995902 437.71365118 1250.27256191 440 1249.5625 C440.81791016 1249.31161621 441.63582031 1249.06073242 442.47851562 1248.80224609 C460.71418305 1242.95076277 476.46743894 1233.49914022 491.0625 1221.1875 C491.86171875 1220.52363281 492.6609375 1219.85976562 493.484375 1219.17578125 C519.80845756 1196.4985063 537.40467238 1161.88691609 540.0625 1127.1875 C541.96001764 1090.63769596 533.77162447 1054.77391919 510.2265625 1025.921875 C508.25674852 1023.43294036 506.62304243 1020.9461363 505.0625 1018.1875 C505.53558594 1017.5790625 506.00867187 1016.970625 506.49609375 1016.34375 C518.61800399 1000.27572083 527.73426373 982.00188159 533.375 962.6875 C533.60533936 961.90673096 533.83567871 961.12596191 534.07299805 960.3215332 C538.15346314 945.50757315 539.61900842 930.75502941 539.5 915.4375 C539.49593643 914.20007553 539.49593643 914.20007553 539.49179077 912.93765259 C539.42597254 899.67071537 538.43016108 887.06873444 535.0625 874.1875 C534.88058105 873.44387207 534.69866211 872.70024414 534.51123047 871.93408203 C531.6741969 860.4515753 527.20215026 849.81641923 522.0625 839.1875 C521.51851562 838.05699219 520.97453125 836.92648437 520.4140625 835.76171875 C513.43913181 822.10106182 504.22618766 809.59646932 493.49853516 798.65869141 C491.98346056 797.10652556 490.49785186 795.52908464 489.01171875 793.94921875 C461.8306506 765.45205879 420.80811574 746.39365347 381.28111732 745.09620273 C378.07599273 745.06205385 374.87227526 745.05900704 371.66697693 745.06724548 C370.4423885 745.06639106 369.21780007 745.06553663 367.95610291 745.06465632 C364.57874617 745.06329975 361.20144808 745.06640307 357.82409847 745.07143438 C354.17391584 745.07576967 350.52373489 745.07429027 346.87355042 745.0735321 C340.55654411 745.07300882 334.23954817 745.07613521 327.92254448 745.08176994 C318.78931909 745.0899114 309.65609869 745.09250288 300.52287007 745.09375793 C285.70331354 745.0959443 270.88376252 745.10259311 256.06420898 745.11206055 C241.67195666 745.12124542 227.27970584 745.12830952 212.88745117 745.13256836 C211.54224529 745.13297036 211.54224529 745.13297036 210.16986352 745.13338047 C203.15583248 745.13546 196.1418014 745.13741689 189.1277703 745.13933504 C154.77267514 745.14876159 120.41759379 745.1688816 86.0625 745.1875 Z " fill="#FFFFFF" transform="translate(998.9375,-0.1875)"/>
<path d="M0 0 C26.42559322 -0.09033916 52.85106115 -0.16400475 79.27676964 -0.20724869 C91.54703683 -0.22786243 103.81720117 -0.25596049 116.08740234 -0.30175781 C126.78373301 -0.34166174 137.47998917 -0.36744144 148.1763922 -0.37635398 C153.83859902 -0.38156265 159.50059273 -0.39378051 165.16273117 -0.42292023 C170.49624277 -0.45014534 175.82945422 -0.45843058 181.16302872 -0.45243073 C183.11648949 -0.45352778 185.06996069 -0.46143917 187.02336121 -0.4768219 C199.93772202 -0.57350015 210.4132005 -0.2292662 220.30859375 9.06640625 C225.93170362 15.49467273 227.3701812 22.72459793 227.28125 31.05078125 C226.570992 38.49862559 223.29896769 44.82146339 218 50 C210.45869 55.82221568 202.69835695 57.31176977 193.3692627 57.24050903 C192.12169323 57.24307231 192.12169323 57.24307231 190.84892035 57.24568737 C188.08213326 57.24896264 185.3155926 57.23801112 182.54882812 57.22705078 C180.55752569 57.22648624 178.56622284 57.22680406 176.57492065 57.22793579 C171.18296769 57.22850864 165.79110407 57.21676527 160.39917183 57.20278788 C154.75907979 57.19026923 149.11898562 57.18910912 143.47888184 57.18673706 C132.80475601 57.18052563 122.13067124 57.16411935 111.45656347 57.14403808 C99.30183865 57.12166861 87.14711185 57.11068301 74.99237156 57.10064721 C49.99488638 57.07975284 24.99745747 57.04308078 0 57 C0 38.19 0 19.38 0 0 Z " fill="#FFFFFF" transform="translate(1198,1085)"/>
</svg>
